<svg xmlns="http://www.w3.org/2000/svg" viewBox="0 0 461.76 209.5"><defs><style>.cls-1{fill:#455154;}.cls-2{fill:#76b7b1;}.cls-3{fill:#fff;}</style></defs><title>logo</title><g id="레이어_5" data-name="레이어 5"><rect class="cls-1" x="151.92" y="14.95" width="171" height="97.89" rx="48.94"/><path d="M162.11,107.23c-5.39,0-9.6-4.06-10.24-9.89L146.51,48l-6.76.74c-.4,0-.8.06-1.19.06-5.39,0-9.6-4.06-10.24-9.89l-1.53-14.11c-.69-6.34,3.12-11.41,9-12l52.1-5.67c.41,0,.82-.06,1.22-.06,5.46,0,9.56,4,10.21,9.89l1.53,14.12a11.3,11.3,0,0,1-1.9,8,9.94,9.94,0,0,1-7.15,4.05l-6.76.74,5.36,49.31c.69,6.34-3.12,11.41-9,12l-18.1,2C162.9,107.21,162.5,107.23,162.11,107.23Z" transform="translate(-4.08 -3.05)"/><path class="cls-1" d="M189.16,11.05c3.37,0,5.81,2.44,6.23,6.32l1.53,14.12c.46,4.17-1.73,7.23-5.5,7.64l-10.74,1.16,5.79,53.29c.45,4.18-1.73,7.23-5.51,7.64l-18.09,2a6.56,6.56,0,0,1-.76,0c-3.31,0-5.84-2.43-6.26-6.32l-5.79-53.29-10.74,1.17a6.56,6.56,0,0,1-.76,0c-3.31,0-5.84-2.44-6.26-6.32l-1.53-14.12c-.46-4.17,1.82-7.24,5.5-7.64l52.1-5.66a7.09,7.09,0,0,1,.79,0m0-8a15.34,15.34,0,0,0-1.65.09L135.41,8.8a13.94,13.94,0,0,0-9.91,5.65,15.46,15.46,0,0,0-2.69,10.81l1.54,14.12c.86,7.92,6.7,13.45,14.21,13.45a14.66,14.66,0,0,0,1.62-.09l2.79-.3,4.93,45.34c.86,7.92,6.7,13.45,14.21,13.45a14.66,14.66,0,0,0,1.62-.09l18.1-2a14,14,0,0,0,10-5.69,15.45,15.45,0,0,0,2.62-10.77L189.5,47.38l2.78-.3a13.94,13.94,0,0,0,10-5.69,15.5,15.5,0,0,0,2.63-10.77L203.34,16.5c-.86-7.92-6.69-13.45-14.18-13.45Z" transform="translate(-4.08 -3.05)"/><path d="M272,105.47a9.9,9.9,0,0,1-9.23-5.87,10.93,10.93,0,0,1-9.77,5.87h-10.3A10.92,10.92,0,0,1,233,99.58a9.9,9.9,0,0,1-9.23,5.89h-10.9c-6,0-10.3-4.63-10.3-11V19.66c0-6.37,4.33-11,10.3-11h23.1c5.87,0,10.39,4.37,11,10.62l1,9.67,1-9.69c.76-6.37,5.17-10.6,11-10.6H283c6,0,10.3,4.63,10.3,11V94.47c0,6.37-4.33,11-10.3,11Z" transform="translate(-4.08 -3.05)"/><path class="cls-1" d="M283,12.66c3.7,0,6.3,2.8,6.3,7V94.47c0,4.2-2.6,7-6.3,7H272c-3.8,0-6.3-2.8-6.3-7V60.16H265l-4.8,34.41c-.5,4.1-3.4,6.9-7.2,6.9h-10.3c-3.8,0-6.7-2.8-7.2-6.9l-4.7-34.41H230V94.47c0,4.2-2.5,7-6.3,7h-10.9c-3.8,0-6.3-2.8-6.3-7V19.66c0-4.2,2.5-7,6.3-7h23.1c3.8,0,6.6,2.8,7,7l4.6,45.9h.7l4.6-45.9c.5-4.2,3.2-7,7-7H283m0-8h-23.2a14.5,14.5,0,0,0-11.94,6.1,14.63,14.63,0,0,0-12-6.1h-23.1c-8.29,0-14.3,6.31-14.3,15V94.47c0,8.69,6,15,14.3,15h10.9a14,14,0,0,0,9.43-3.45,14.91,14.91,0,0,0,9.57,3.45H253a14.87,14.87,0,0,0,9.56-3.45,14.07,14.07,0,0,0,9.44,3.45h11c8.15,0,14.3-6.45,14.3-15V19.66c0-8.55-6.15-15-14.3-15Z" transform="translate(-4.08 -3.05)"/><path d="M325.64,106.2q-.57,0-1.17-.06l-18-1.87c-5.94-.61-9.77-5.66-9.11-12l7.72-74.41c.62-5.94,4.72-9.94,10.21-9.94a9.41,9.41,0,0,1,1.17.07l18,1.86c5.93.62,9.76,5.67,9.11,12l-7.73,74.4C335.24,102.21,331.13,106.2,325.64,106.2Z" transform="translate(-4.08 -3.05)"/><path class="cls-1" d="M315.29,11.93a6.56,6.56,0,0,1,.76,0l18,1.86c3.78.4,6,3.44,5.55,7.62l-7.72,74.4c-.41,3.89-2.85,6.35-6.24,6.35a6.39,6.39,0,0,1-.75,0l-18-1.86c-3.78-.4-6-3.44-5.54-7.62l7.72-74.4c.4-3.9,2.84-6.35,6.23-6.35m0-8h0c-7.53,0-13.36,5.56-14.19,13.52l-7.72,74.41c-.9,8.64,4.43,15.54,12.68,16.39l18,1.87a14.05,14.05,0,0,0,1.58.08c7.53,0,13.37-5.56,14.19-13.52l7.72-74.41a15.44,15.44,0,0,0-2.67-10.75,13.93,13.93,0,0,0-10-5.64L316.87,4a13.93,13.93,0,0,0-1.58-.08Z" transform="translate(-4.08 -3.05)"/><path d="M22.72,207.06c-5.68,0-9.89-4.28-10.25-10.4L8.1,122a11.33,11.33,0,0,1,2.3-7.89,9.92,9.92,0,0,1,7.34-3.69l16.28-1c.22,0,.45,0,.67,0,5.68,0,9.89,4.27,10.25,10.4l1.11,19,3.4-.2-1.11-19a11.37,11.37,0,0,1,2.29-7.9A10,10,0,0,1,58,108.05l16.37-1,.65,0c5.69,0,9.92,4.28,10.28,10.4l4.36,74.68a11.47,11.47,0,0,1-2.34,7.91,10,10,0,0,1-7.3,3.67l-16.37,1-.68,0c-5.68,0-9.89-4.28-10.25-10.4l-1.14-19.57-3.4.2,1.15,19.57A11.38,11.38,0,0,1,47,202.4a10,10,0,0,1-7.34,3.69L23.39,207Z" transform="translate(-4.08 -3.05)"/><path class="cls-1" d="M75,111.07c3.48,0,6,2.6,6.28,6.63l4.37,74.68c.24,4.19-2.19,7.14-5.89,7.36l-16.37.95-.44,0c-3.56,0-6-2.61-6.26-6.64l-1.37-23.56-11.38.67,1.37,23.56c.25,4.19-2.08,7.13-5.88,7.35l-16.27,1h-.44c-3.56,0-6-2.61-6.26-6.64L12.1,121.75c-.25-4.2,2.08-7.14,5.88-7.36l16.27-1h.44c3.56,0,6,2.6,6.26,6.63l1.34,23,11.38-.66-1.34-23c-.25-4.2,2.09-7.14,5.88-7.36l16.37-1H75m0-8c-.29,0-.59,0-.88,0l-16.38,1a13.94,13.94,0,0,0-10.24,5.19,15.14,15.14,0,0,0-1.37,2.07,13.79,13.79,0,0,0-11.44-5.88l-.91,0-16.27,1a14,14,0,0,0-10.24,5.19,15.52,15.52,0,0,0-3.16,10.62l4.36,74.68C9,205.1,15,211.06,22.72,211.06q.45,0,.9,0l16.28-.95a13.89,13.89,0,0,0,10.24-5.19,13.74,13.74,0,0,0,1.37-2.07A13.79,13.79,0,0,0,63,208.71l.91,0,16.37-1a13.88,13.88,0,0,0,10.18-5.15,15.41,15.41,0,0,0,3.22-10.66l-4.36-74.67C88.79,109,82.79,103.07,75,103.07Z" transform="translate(-4.08 -3.05)"/><path d="M114.86,206C100,206,91,196.54,91,180.68l-.14-47c0-15.91,8.85-25.43,23.82-25.48l26.61-.08c14.83,0,23.72,9.47,23.77,25.33l.14,47c.05,15.91-8.82,25.43-23.72,25.48Zm13.36-65.55a103.15,103.15,0,0,1,.53,30,89.23,89.23,0,0,0-.36-30Z" transform="translate(-4.08 -3.05)"/><path class="cls-1" d="M141.28,112.12c12.24,0,19.73,7.38,19.77,21.34l.14,47c.05,14-7.43,21.43-19.73,21.47L115,202h-.1C102.62,202,95,194.63,95,180.67l-.14-47c0-14,7.53-21.42,19.83-21.46l26.5-.08h.1m-17.8,65.56,7.9,0a92.36,92.36,0,0,0,.28-41.2l-8.3,0a98.65,98.65,0,0,1,.12,41.2m17.8-73.56h-.12l-26.5.08c-8.36,0-15.39,2.79-20.33,8s-7.51,12.62-7.48,21.5l.14,47c0,8.85,2.65,16.26,7.58,21.41s12,7.91,20.29,7.91H115l26.5-.08c17.15-.06,27.77-11.35,27.71-29.49l-.14-47c-.06-18.09-10.7-29.32-27.77-29.32Z" transform="translate(-4.08 -3.05)"/><path d="M240.43,208.55c-.34,0-.68,0-1-.05l-11-1a9.88,9.88,0,0,1-8.65-6.7,10.92,10.92,0,0,1-9.2,5h0c-.35,0-.71,0-1.07-.05l-10.25-.95a10.9,10.9,0,0,1-9.17-6.72,9.74,9.74,0,0,1-8.7,5c-.35,0-.7,0-1-.05l-10.86-1a10,10,0,0,1-7.22-3.93,11.41,11.41,0,0,1-2-8l6.9-74.49c.56-6,4.66-10,10.22-10,.34,0,.69,0,1.05,0l23,2.13c5.85.54,9.94,5.31,10,11.59l.07,9.71,1.86-9.55c1.25-5.86,5.51-9.59,10.86-9.59a9.34,9.34,0,0,1,1,0l23.11,2.14c5.94.55,9.83,5.55,9.24,11.9l-6.9,74.49C250.13,204.41,245.91,208.55,240.43,208.55Z" transform="translate(-4.08 -3.05)"/><path class="cls-1" d="M177.38,109.58l.68,0,23,2.13c3.79.35,6.32,3.4,6.33,7.62l.35,46.13.69.07,8.82-45.29c.83-3.88,3.48-6.35,6.93-6.35l.68,0L248,116.09c3.68.34,6,3.37,5.62,7.55l-6.9,74.49c-.36,3.93-2.9,6.42-6.26,6.42-.22,0-.43,0-.65,0l-11-1c-3.78-.35-6-3.37-5.63-7.55l3.17-34.16-.7-.06-7.95,33.81c-.82,3.79-3.64,6.24-7.11,6.24l-.7,0-10.25-.95c-3.79-.35-6.42-3.41-6.54-7.54l-1.51-34.69-.79-.07-3.17,34.16c-.36,3.92-2.8,6.42-6.23,6.42l-.69,0-10.85-1c-3.78-.35-6-3.37-5.63-7.55l6.9-74.49c.37-3.92,2.81-6.42,6.24-6.42m0-8c-7.62,0-13.46,5.63-14.2,13.68l-6.9,74.49a15.5,15.5,0,0,0,2.79,10.72A14,14,0,0,0,169.13,206L180,207c.47,0,.95.07,1.42.07a13.87,13.87,0,0,0,8.28-2.65,14.8,14.8,0,0,0,9.22,4.33l10.25,1a13.88,13.88,0,0,0,1.44.07A14.85,14.85,0,0,0,219,207.2a14,14,0,0,0,9,4.27l11,1c.46,0,.93.07,1.39.07,7.51,0,13.5-5.76,14.23-13.69l6.9-74.48a15.4,15.4,0,0,0-2.86-10.76,13.93,13.93,0,0,0-10-5.5L225.6,106c-.47,0-.95-.06-1.42-.06a14.43,14.43,0,0,0-11,5,14.63,14.63,0,0,0-11.36-7.18l-23-2.13a13.5,13.5,0,0,0-1.42-.07Z" transform="translate(-4.08 -3.05)"/><path d="M264.55,206.15c-5.86,0-10.08-4.39-10.28-10.68L252,120.7c-.19-6.38,4-11.13,10-11.31l46-1.41h.36c5.86,0,10.08,4.39,10.27,10.68l.31,10.2c.18,5.82-3.19,9.91-9.23,11.22a69,69,0,0,1-14.24,1.44c-1.9,0-3.86-.07-5.86-.21v.5a44.48,44.48,0,0,0,6.38.46A45.35,45.35,0,0,0,308,140.61a8.59,8.59,0,0,1,2.29-.31c5.1,0,9.1,4.66,9.28,10.85l.29,9.2c.17,5.63-3.16,9.71-9.12,11.19a55.47,55.47,0,0,1-14,1.77,60.19,60.19,0,0,1-6.25-.33l0,.91a44.43,44.43,0,0,0,6.19.44A48.78,48.78,0,0,0,309,172.69a8.35,8.35,0,0,1,2.24-.31c5.11,0,9.1,4.67,9.28,10.86l.32,10.19c.19,6.37-4,11.13-10,11.31l-46,1.41Z" transform="translate(-4.08 -3.05)"/><path class="cls-1" d="M308.29,112c3.67,0,6.15,2.69,6.27,6.81l.32,10.19c.12,4.2-2.31,6.37-6.09,7.19a64.52,64.52,0,0,1-13.39,1.35,82,82,0,0,1-10-.64l.25,8.3a48.85,48.85,0,0,0,23.4-.71,4.43,4.43,0,0,1,1.22-.17c3,0,5.17,3.26,5.29,7l.28,9.2c.13,4.2-2.41,6.27-6.09,7.19a51.36,51.36,0,0,1-13,1.65,60.3,60.3,0,0,1-10.4-.94l.27,8.9a48.94,48.94,0,0,0,10.09,1.06A51.87,51.87,0,0,0,310,176.55a4.84,4.84,0,0,1,1.22-.17c3,0,5.17,3.26,5.29,7l.31,10.2c.13,4.19-2.29,7.07-6.09,7.18l-46,1.41h-.23c-3.67,0-6.15-2.69-6.28-6.81L256,120.57c-.13-4.19,2.28-7.07,6.08-7.19l46-1.4h.24m0-8h-.48l-46,1.41a13.91,13.91,0,0,0-10.39,4.9A15.54,15.54,0,0,0,248,120.82l2.29,74.77c.25,8.44,6.26,14.56,14.27,14.56H265l46-1.4a14,14,0,0,0,10.38-4.9,15.44,15.44,0,0,0,3.45-10.53l-.31-10.2a15.93,15.93,0,0,0-5.16-11.66,14.24,14.24,0,0,0,4.46-11.23l-.28-9.19a16.08,16.08,0,0,0-4.8-11.35,14.42,14.42,0,0,0,4.12-10.94l-.31-10.2C322.3,110.1,316.3,104,308.29,104Z" transform="translate(-4.08 -3.05)"/><path d="M380.06,207.06c-.22,0-.46,0-.69,0l-15.47-.93c-5.78-.34-10.2-4.65-11-10.71l-1.42-9.27-.49,8.19c-.37,6.11-4.59,10.38-10.25,10.38-.23,0-.46,0-.69,0l-14.48-.87c-6-.36-10-5.23-9.62-11.6l4.48-74.67c.37-6.11,4.59-10.38,10.26-10.38l.69,0L370,109.49c7.27.44,13.17,3.11,17.06,7.73s5.75,11.13,5.27,19.06l-1.09,18.27c-.43,7-2.48,12.68-6.1,16.79L388.76,196a10,10,0,0,1-1.93,8.17A8.68,8.68,0,0,1,380.06,207.06ZM357.24,146.8l.87,0a17.59,17.59,0,0,0,.22-6.65,5.28,5.28,0,0,0-.69-.08l-3.09-.19a48.76,48.76,0,0,1-.42,6.69Z" transform="translate(-4.08 -3.05)"/><path class="cls-1" d="M330.68,111.15h.45l38.63,2.32c12.38.75,19.42,8.58,18.58,22.56l-1.1,18.27c-.42,7-2.53,12.17-6.35,15.65l3.92,26.58c.62,4-1.25,6.51-4.75,6.51h-.45l-15.48-.93c-3.79-.23-6.72-3.11-7.27-7.25l-3.24-21.13-5.39-.33L347,194.07c-.24,4-2.7,6.62-6.25,6.62h-.45l-14.48-.87c-3.79-.23-6.12-3.17-5.87-7.37l4.49-74.67c.24-4,2.7-6.62,6.26-6.62m27.7,39.69c1.71,0,2.82-.32,3.22-1.58a21.47,21.47,0,0,0,.6-10.08c-.48-2-1.83-2.92-4.32-3.07l-7.69-.46a38.42,38.42,0,0,1-.88,14.68l7.69.46c.5,0,1,.05,1.38.05m-27.7-47.69h0c-7.77,0-13.76,5.95-14.25,14.14L312,192c-.53,8.68,5.1,15.34,13.37,15.84l14.48.86q.46,0,.93,0a13.79,13.79,0,0,0,11-5.33,15.49,15.49,0,0,0,11.9,6.74l15.47.93c.32,0,.63,0,.93,0a12.63,12.63,0,0,0,9.81-4.32,13.91,13.91,0,0,0,2.85-11.39l-3.37-22.84c3.48-4.6,5.45-10.54,5.88-17.71l1.1-18.27c1.08-18.1-8.91-30-26.09-31l-38.64-2.32-.92,0Z" transform="translate(-4.08 -3.05)"/><path d="M435.74,206.66c-.61,0-1.24,0-1.88-.06l-25.46-1.42c-7.23-.41-13.13-3.05-17-7.66s-5.84-11.11-5.39-19l.18-3.2c.34-6.13,4.56-10.42,10.25-10.42.21,0,.43,0,.65,0l10.07.56-6.56-3.18c-8.58-4-13-11.84-12.44-22.12l.48-8.59c.84-15.08,9.6-24.08,23.42-24.08.61,0,1.23,0,1.86,0L439.33,109c7.27.41,13.18,3.06,17.1,7.66s5.79,11.1,5.35,19l-.24,4.19c-.34,6.14-4.56,10.43-10.25,10.43l-.65,0-8.14-.46,4.56,2a21.54,21.54,0,0,1,12.53,21l-.44,9.75C458.3,197.66,449.55,206.66,435.74,206.66Zm-11.5-30.94c0-.21.06-.47.08-.8v-.1a1.35,1.35,0,0,0-.55-1.3l-3.7-1.79a20.65,20.65,0,0,1,1.36,3.83Zm-.65-37.3c0,.2-.06.47-.08.79v.11c-.12,2.05.48,2.3.92,2.49l2.93,1.29a15.17,15.17,0,0,1-1.05-4.53Z" transform="translate(-4.08 -3.05)"/><path class="cls-1" d="M412,111.47c.54,0,1.08,0,1.64,0l25.46,1.42c12.38.7,19.45,8.51,18.67,22.49l-.23,4.19c-.23,4-2.7,6.65-6.26,6.65h-.42l-14.58-.82c-3.5-.2-5.66-2.82-6-7.35-.18-2.11-1.12-3.37-3.11-3.48l-4.1-.23h-.26c-2.21,0-3.13,1.63-3.3,4.61v.1c-.18,3.2.91,5.36,3.35,6.4l22.58,10a17.49,17.49,0,0,1,10.16,17.09l-.45,9.79c-.74,13.35-8,20.31-19.41,20.31-.54,0-1.09,0-1.65,0l-25.47-1.43c-12.28-.68-19.45-8.5-18.67-22.48l.18-3.19c.23-4,2.69-6.65,6.26-6.65h.42l14.68.82c3.1.18,4.88,2.28,6.2,7.36a3.09,3.09,0,0,0,2.87,2.47l4.09.22h.29c2.28,0,3.21-1.63,3.37-4.61V175a5.23,5.23,0,0,0-2.92-5.17l-23.11-11.21c-6.64-3.08-10.71-9.11-10.19-18.3l.48-8.59c.75-13.35,8.08-20.3,19.43-20.3m0-8c-15.95,0-26.45,10.67-27.42,27.86l-.48,8.58c-.49,8.85,2.39,16.38,8.07,21.57-5.65,1.72-9.66,6.91-10,13.58l-.18,3.2c-.49,8.86,1.7,16.42,6.34,21.86s11.53,8.58,19.88,9l25.46,1.43q1.07.06,2.1.06c15.94,0,26.44-10.68,27.4-27.86v-.08l.45-9.76a26,26,0,0,0-7.34-19.56c5.26-2,8.93-7,9.28-13.33l.24-4.2c.5-8.87-1.68-16.42-6.29-21.85S448,105.43,439.56,105l-25.47-1.43c-.69,0-1.39-.06-2.08-.06Z" transform="translate(-4.08 -3.05)"/><path class="cls-2" d="M186.47,93.58c.45,4.18-1.73,7.23-5.51,7.64l-18.09,2c-3.68.4-6.57-2.1-7-6.28l-5.79-53.29-10.74,1.17c-3.68.4-6.57-2.1-7-6.28l-1.53-14.12c-.46-4.17,1.82-7.24,5.5-7.64l52.1-5.66c3.78-.41,6.57,2.1,7,6.28l1.53,14.12c.46,4.17-1.73,7.23-5.5,7.64l-10.74,1.16Z" transform="translate(-4.08 -3.05)"/><path class="cls-2" d="M289.32,94.47c0,4.2-2.6,7-6.3,7H272c-3.8,0-6.3-2.8-6.3-7V60.16H265l-4.8,34.41c-.5,4.1-3.4,6.9-7.2,6.9h-10.3c-3.8,0-6.7-2.8-7.2-6.9l-4.7-34.41H230V94.47c0,4.2-2.5,7-6.3,7h-10.9c-3.8,0-6.3-2.8-6.3-7V19.66c0-4.2,2.5-7,6.3-7h23.1c3.8,0,6.6,2.8,7,7l4.6,45.9h.7l4.6-45.9c.5-4.2,3.2-7,7-7H283c3.7,0,6.3,2.8,6.3,7Z" transform="translate(-4.08 -3.05)"/><path class="cls-2" d="M331.88,95.85c-.44,4.18-3.21,6.71-7,6.31l-18-1.86c-3.78-.4-6-3.44-5.54-7.62l7.72-74.4c.43-4.18,3.21-6.71,7-6.31l18,1.86c3.78.4,6,3.44,5.55,7.62Z" transform="translate(-4.08 -3.05)"/><path class="cls-2" d="M85.65,192.38c.24,4.19-2.19,7.14-5.89,7.36l-16.37.95c-3.79.23-6.45-2.42-6.7-6.62l-1.37-23.56-11.38.67,1.37,23.56c.25,4.19-2.08,7.13-5.88,7.35l-16.27,1c-3.8.22-6.45-2.43-6.7-6.63L12.1,121.75c-.25-4.2,2.08-7.14,5.88-7.36l16.27-1c3.79-.22,6.45,2.43,6.7,6.62l1.34,23,11.38-.66-1.34-23c-.25-4.2,2.09-7.14,5.88-7.36l16.37-1c3.7-.21,6.46,2.43,6.7,6.62Z" transform="translate(-4.08 -3.05)"/><path class="cls-2" d="M161.19,180.46c.05,14-7.43,21.43-19.73,21.47L115,202c-12.3,0-19.93-7.34-20-21.34l-.14-47c0-14,7.53-21.42,19.83-21.46l26.5-.08c12.3,0,19.83,7.34,19.87,21.34Zm-29.81-2.81a92.36,92.36,0,0,0,.28-41.2l-8.3,0a98.65,98.65,0,0,1,.12,41.2Z" transform="translate(-4.08 -3.05)"/><path class="cls-2" d="M246.69,198.13c-.38,4.18-3.23,6.73-6.91,6.39l-11-1c-3.78-.35-6-3.37-5.63-7.55l3.17-34.16-.7-.06-7.95,33.81c-.88,4-4,6.56-7.81,6.21l-10.25-.95c-3.79-.35-6.42-3.41-6.54-7.54l-1.51-34.69-.79-.07-3.17,34.16c-.38,4.18-3.13,6.74-6.92,6.39l-10.85-1c-3.78-.35-6-3.37-5.63-7.55l6.9-74.49c.39-4.18,3.14-6.74,6.92-6.39l23,2.13c3.79.35,6.32,3.4,6.33,7.62l.35,46.13.69.07,8.82-45.29c.88-4.13,3.83-6.67,7.61-6.32L248,116.09c3.68.34,6,3.37,5.62,7.55Z" transform="translate(-4.08 -3.05)"/><path class="cls-2" d="M316.85,193.56c.13,4.19-2.29,7.07-6.09,7.18l-46,1.41c-3.8.11-6.38-2.61-6.51-6.81L256,120.57c-.13-4.19,2.28-7.07,6.08-7.19l46-1.4c3.8-.12,6.39,2.61,6.51,6.81l.32,10.19c.12,4.2-2.31,6.37-6.09,7.19a70.39,70.39,0,0,1-23.39.71l.25,8.3a48.89,48.89,0,0,0,23.4-.71c3.67-1,6.38,2.6,6.51,6.8l.28,9.2c.13,4.2-2.41,6.27-6.09,7.19a54.34,54.34,0,0,1-23.39.71l.27,8.9a50,50,0,0,0,23.4-.72c3.67-1,6.38,2.61,6.51,6.81Z" transform="translate(-4.08 -3.05)"/><path class="cls-2" d="M384.81,196.54c.65,4.15-1.41,6.73-5.2,6.5l-15.48-.93c-3.79-.23-6.72-3.11-7.27-7.25l-3.24-21.13-5.39-.33L347,194.07c-.25,4.19-2.91,6.84-6.7,6.61l-14.48-.87c-3.79-.23-6.12-3.17-5.87-7.37l4.49-74.67c.25-4.19,2.91-6.83,6.71-6.61l38.63,2.32c12.38.75,19.42,8.58,18.58,22.56l-1.1,18.27c-.42,7-2.53,12.17-6.35,15.65ZM357,150.79c2.49.15,4.1,0,4.6-1.53a21.47,21.47,0,0,0,.6-10.08c-.48-2-1.83-2.92-4.32-3.07l-7.69-.46a38.42,38.42,0,0,1-.88,14.68Z" transform="translate(-4.08 -3.05)"/><path class="cls-2" d="M390.13,175.51c.24-4.2,2.89-6.85,6.68-6.64l14.68.82c3.1.18,4.88,2.28,6.2,7.36a3.09,3.09,0,0,0,2.87,2.47l4.09.22c2.5.14,3.49-1.5,3.66-4.6V175a5.23,5.23,0,0,0-2.92-5.17l-23.11-11.21c-6.64-3.08-10.71-9.11-10.19-18.3l.48-8.59c.78-14,8.78-20.94,21.07-20.25l25.46,1.42c12.38.7,19.45,8.51,18.67,22.49l-.23,4.19c-.24,4.19-2.89,6.85-6.68,6.64l-14.58-.82c-3.5-.2-5.66-2.82-6-7.35-.18-2.11-1.12-3.37-3.11-3.48l-4.1-.23c-2.39-.13-3.39,1.52-3.56,4.61v.1c-.18,3.2.91,5.36,3.35,6.4l22.58,10a17.49,17.49,0,0,1,10.16,17.09l-.45,9.79c-.78,14-8.68,21-21.06,20.26l-25.47-1.43c-12.28-.68-19.45-8.5-18.67-22.48Z" transform="translate(-4.08 -3.05)"/></g><g id="레이어_2" data-name="레이어 2"><path class="cls-3" d="M186.47,17.33a3.9,3.9,0,0,1,.36.54c.13.21,0,0,.11.24a3.74,3.74,0,0,1,.12.48c0-.19,0,.34,0,.41a1.5,1.5,0,0,0,3,0,5.22,5.22,0,0,0-1-3.19,1.55,1.55,0,0,0-2.05-.54,1.53,1.53,0,0,0-.54,2.06Z" transform="translate(-4.08 -3.05)"/><path class="cls-3" d="M234.65,18.63c.15.1.18.1.09,0,.12.14.14.15.07.06s.2.41.13.21a3.76,3.76,0,0,1,.15,1.17,1.54,1.54,0,0,0,1.5,1.5,1.51,1.51,0,0,0,1.5-1.5c-.06-1.57-.4-3.26-1.93-4.05a1.5,1.5,0,1,0-1.51,2.59Z" transform="translate(-4.08 -3.05)"/><path class="cls-3" d="M281.82,18.47a1.36,1.36,0,0,1,.24.13c-.11-.1-.11-.1,0,0s.13.13,0,0c.05.08.1.16.14.24-.17-.32.07.42,0,0a1.22,1.22,0,0,1,0,.27c0-.17,0-.17,0,0a1.5,1.5,0,0,0,2.9.79,3.64,3.64,0,0,0-1.83-4.09,1.53,1.53,0,0,0-2,.54,1.51,1.51,0,0,0,.53,2Z" transform="translate(-4.08 -3.05)"/><path class="cls-3" d="M331.87,19.37a2,2,0,0,1,.22,1.44,1.53,1.53,0,0,0,1.05,1.84,1.5,1.5,0,0,0,1.84-1,5.16,5.16,0,0,0-.52-3.75,1.5,1.5,0,1,0-2.59,1.51Z" transform="translate(-4.08 -3.05)"/><path class="cls-3" d="M31.93,119.91A3.15,3.15,0,0,1,33.06,122a1.54,1.54,0,0,0,1.5,1.5,1.51,1.51,0,0,0,1.5-1.5,6.11,6.11,0,0,0-2-4.21,1.53,1.53,0,0,0-2.12,0,1.51,1.51,0,0,0,0,2.12Z" transform="translate(-4.08 -3.05)"/><path class="cls-3" d="M74,117.08a2.83,2.83,0,0,1,.88,1.84,1.5,1.5,0,0,0,3,0,5.93,5.93,0,0,0-1.76-4A1.5,1.5,0,0,0,74,117.08Z" transform="translate(-4.08 -3.05)"/><path class="cls-3" d="M145.59,122.88a6.93,6.93,0,0,1,2.94,3.05,1.5,1.5,0,1,0,2.59-1.52,9.72,9.72,0,0,0-4-4.12c-1.7-.93-3.22,1.66-1.52,2.59Z" transform="translate(-4.08 -3.05)"/><path class="cls-3" d="M197.77,117.75a4.23,4.23,0,0,1,.93,2.64,1.5,1.5,0,0,0,3,0,6.91,6.91,0,0,0-1.34-4.16,1.54,1.54,0,0,0-2.05-.54,1.53,1.53,0,0,0-.54,2.06Z" transform="translate(-4.08 -3.05)"/><path class="cls-3" d="M245.45,122.41a5.16,5.16,0,0,1,1,3.31c-.08,1.93,2.92,1.93,3,0a7.92,7.92,0,0,0-1.4-4.83,1.53,1.53,0,0,0-2-.53,1.5,1.5,0,0,0-.54,2Z" transform="translate(-4.08 -3.05)"/><path class="cls-3" d="M304.68,117.76c.21.13,0,0,.11.06a3.19,3.19,0,0,1,.26.26c-.1-.12,0,0,0,0s.13.26.19.4a1.5,1.5,0,1,0,2.59-1.51,4.12,4.12,0,0,0-1.67-1.86,1.5,1.5,0,0,0-1.51,2.6Z" transform="translate(-4.08 -3.05)"/><path class="cls-3" d="M307.82,151.44a1.55,1.55,0,0,1,.31.07c-.08,0-.08,0,0,0s.09.05,0,0a1.58,1.58,0,0,1,.22.23,1.5,1.5,0,1,0,2.13-2.12,3.53,3.53,0,0,0-1.89-1.07,1.5,1.5,0,0,0-.8,2.9Z" transform="translate(-4.08 -3.05)"/><path class="cls-3" d="M308.83,182.4l.21,0c-.18,0,.25.15,0,0,.08,0,.14.14,0,0,.14.14,0,.08,0-.12a1.54,1.54,0,0,0,1.5,1.5c.74,0,1.6-.66,1.5-1.5a3.06,3.06,0,0,0-2.4-2.82,1.55,1.55,0,0,0-1.85,1.05,1.51,1.51,0,0,0,1.05,1.84Z" transform="translate(-4.08 -3.05)"/><path class="cls-3" d="M374.7,123.52c.16.13.3.27.45.41s.15.17.05,0a2.36,2.36,0,0,1,.2.31s.14.27.09.16.05.15.06.17a3.92,3.92,0,0,1,.15.66,1.5,1.5,0,0,0,1.84,1,1.54,1.54,0,0,0,1-1.84,4.89,4.89,0,0,0-1.77-3.09,1.55,1.55,0,0,0-2.12,0,1.51,1.51,0,0,0,0,2.12Z" transform="translate(-4.08 -3.05)"/><path class="cls-3" d="M449.49,124.67a1.79,1.79,0,0,1,.24.12c.34.15-.09-.09.07,0s.2.22.1.09.1.18.1.18.05.14,0,0a2.5,2.5,0,0,0,.07.26c-.07-.29,0,.06,0,.06s0,.09,0,0,0-.09,0,.06a1.5,1.5,0,0,0,2.89.79,3.72,3.72,0,0,0-1.94-4.19,1.53,1.53,0,0,0-2.05.54,1.51,1.51,0,0,0,.53,2Z" transform="translate(-4.08 -3.05)"/><path class="cls-3" d="M446.55,165.55a2.38,2.38,0,0,1,1,2.11,1.5,1.5,0,1,0,3,0,5.2,5.2,0,0,0-1.88-4.24,1.56,1.56,0,0,0-2.12,0,1.51,1.51,0,0,0,0,2.13Z" transform="translate(-4.08 -3.05)"/></g></svg>